<svg xmlns="http://www.w3.org/2000/svg" viewBox="0 0 200 200" role="img" aria-labelledby="title desc">
  <title id="title">Ruta Segura - Logotipo</title>
  <desc id="desc">Escudo con ruta y marca de verificación, acompañado del texto RUTA SEGURA.</desc>

  <defs>
    <!-- Paleta editable -->
    <style>
      :root {
        --accent: #0F766E;   /* verde petróleo */
        --accent-2: #14B8A6; /* aqua */
        --text: #0B1320;     /* casi negro */
      }
      .mark { fill: none; stroke: var(--accent); stroke-width: 10; stroke-linecap: round; stroke-linejoin: round; }
      .mark-2 { fill: none; stroke: var(--accent-2); stroke-width: 10; stroke-linecap: round; stroke-linejoin: round; }
      .fill-accent { fill: var(--accent); }
      .text { fill: var(--text); font-family: ui-sans-serif, system-ui, -apple-system, "Segoe UI", Roboto, Inter, "Helvetica Neue", Arial, "Noto Sans", "Liberation Sans", sans-serif; font-weight: 700; letter-spacing: 0.06em; }
      .sub { font-weight: 500; letter-spacing: 0.02em; opacity: .85; }
    </style>

    <!-- Sombra suave del escudo -->
    <filter id="s" x="-20%" y="-20%" width="140%" height="140%">
      <feDropShadow dx="0" dy="3" stdDeviation="6" flood-opacity=".12"/>
    </filter>
  </defs>

  <!-- Marca -->
  <g transform="translate(20,10)" filter="url(#s)">
    <!-- Escudo -->
    <path class="mark" d="M100 16 164 40v56c0 48-64 88-64 88s-64-40-64-88V40l64-24Z"/>

    <!-- Ruta interna (línea ondulada con nodos) -->
    <path class="mark-2" d="M sixty 78 C 80 60, 110 60, 120 82 S 152 120, 140 140" transform="translate(0,0)">
      <!-- Nota: 'sixty' no es válido en SVG; se reemplaza abajo con coordenadas numéricas -->
    </path>
    <!-- Reemplazo exacto del path anterior con números (para total compatibilidad): -->
    <path class="mark-2" d="M60 78 C80 60, 110 60, 120 82 S152 120, 140 140"/>

    <!-- Nodo inicio -->
    <circle cx="60" cy="78" r="8" class="fill-accent"/>
    <!-- Nodo intermedio -->
    <circle cx="120" cy="82" r="6" class="fill-accent" opacity=".9"/>

    <!-- Pin destino simplificado -->
    <g transform="translate(136,136)">
      <path class="mark" d="M0 0 a20 20 0 1 1 40 0 c0 16-20 40-20 40S0 16 0 0Z" />
      <circle cx="20" cy="0" r="7" class="fill-accent"/>
    </g>

    <!-- Check de verificación integrado -->
    <path class="mark" d="M78 118 l14 14 32-32"/>
  </g>

  <!-- Texto -->

</svg>
