<svg xmlns="http://www.w3.org/2000/svg" viewBox="0 0 200 200" role="img" aria-labelledby="title desc">
  <title id="title">Ruta Segura — escudo con pin protagonista y paloma pequeña</title>
  <desc id="desc">Escudo estilizado verde/aqua con un pin de ubicación grande en el centro y un badge con paloma más pequeña en la esquina inferior derecha.</desc>
  <defs>
    <style>
      :root {      
        --accent: #188a7dff;   /* verde petróleo */
        --accent-2: #157a3cff; /* aqua */

        --bg: #000000ff;
      }
      .shield { fill:  none; stroke: var(--accent); stroke-width: 16; stroke-linejoin: round; }
      .pin { fill: var(--accent); stroke: var(--accent); stroke-width: 12; }
      .pin-hole { fill: white; }
      .badge { fill: var(--accent-2); stroke: var(--accent); stroke-width: 0; }
      .check { fill: none; stroke: white; stroke-width: 8; stroke-linecap: round; stroke-linejoin: round; }
    </style>
    <filter id="s" x="-20%" y="-20%" width="140%" height="140%">
      <feDropShadow dx="0" dy="4" stdDeviation="6" flood-opacity=".15"/>
    </filter>
  </defs>

  <!-- Escudo -->
    <g transform="translate(0,-10)">
  <path class="shield" filter="url(#s)"
    d="M100 20 165 45v60c0 50-65 95-65 95s-65-45-65-95V45l65-25Z"/>
      </g>

  <!-- Pin de ubicación aún más grande -->
  <g transform="translate(100,85)">
    <path class="pin" d="M0 -50a36 36 0 0 0-36 36c0 30 36 75 36 75s36-45 36-75a36 36 0 0 0-36-36z"/>
    <circle transform="translate(0,-15)" class="pin-hole" r="20 "/>
  </g>

  <!-- Badge circular con paloma más reducida -->
  <g transform="translate(138,128)">
    <circle r="22" class="badge"/>
    <path class="check" d="M-14 0 l8 12 18-18"/>
  </g>
</svg>
